<svg width="31" height="27" viewBox="0 0 31 27" fill="none" xmlns="http://www.w3.org/2000/svg">
<path d="M25.7096 7.66667H5.29297C2.87214 7.66667 0.917969 9.62083 0.917969 12.0417V17.875C0.917969 19.4792 2.23047 20.7917 3.83464 20.7917H6.7513V23.7083C6.7513 25.3125 8.0638 26.625 9.66797 26.625H21.3346C22.9388 26.625 24.2513 25.3125 24.2513 23.7083V20.7917H27.168C28.7721 20.7917 30.0846 19.4792 30.0846 17.875V12.0417C30.0846 9.62083 28.1305 7.66667 25.7096 7.66667ZM19.8763 23.7083H11.1263C10.3242 23.7083 9.66797 23.0521 9.66797 22.25V16.4167H21.3346V22.25C21.3346 23.0521 20.6784 23.7083 19.8763 23.7083ZM25.7096 13.5C24.9076 13.5 24.2513 12.8438 24.2513 12.0417C24.2513 11.2396 24.9076 10.5833 25.7096 10.5833C26.5117 10.5833 27.168 11.2396 27.168 12.0417C27.168 12.8438 26.5117 13.5 25.7096 13.5ZM22.793 0.375H8.20964C7.40755 0.375 6.7513 1.03125 6.7513 1.83333V4.75C6.7513 5.55208 7.40755 6.20833 8.20964 6.20833H22.793C23.5951 6.20833 24.2513 5.55208 24.2513 4.75V1.83333C24.2513 1.03125 23.5951 0.375 22.793 0.375Z" fill="black"/>
</svg>
