<svg width="16" height="16" viewBox="0 0 16 16" fill="none" xmlns="http://www.w3.org/2000/svg">
<g clip-path="url(#clip0_4474_4459)">
<g opacity="0.4">
<path d="M7.99984 10.6168C7.79839 10.617 7.59927 10.5743 7.41613 10.4918L1.90625 8.01562V10.7364C1.90614 10.9449 1.96752 11.1488 2.08281 11.3236C2.1981 11.4984 2.36249 11.6364 2.55591 11.721L7.55581 13.909C7.8385 14.0326 8.16125 14.0326 8.44396 13.909L13.4439 11.721C13.6373 11.6364 13.8017 11.4984 13.917 11.3236C14.0323 11.1488 14.0936 10.9449 14.0935 10.7364V8.01562L8.58392 10.4918C8.40067 10.5743 8.20144 10.617 7.99991 10.6168H7.99984Z" fill="black"/>
<path d="M15.7257 5.42599L8.19467 2.04154C8.07101 1.98615 7.92905 1.98615 7.80539 2.04154L0.274409 5.42599C0.164702 5.47522 0.0784298 5.56412 0.033565 5.67434C-0.0111883 5.78455 -0.0111883 5.90741 0.033565 6.01762C0.0784298 6.12784 0.164699 6.21673 0.274409 6.26596L7.80539 9.65042C7.92905 9.7058 8.07101 9.7058 8.19467 9.65042L15.0625 6.56415V9.63044C15.0625 9.79539 15.1519 9.94768 15.2969 10.0301C15.4419 10.1126 15.6207 10.1126 15.7656 10.0301C15.9106 9.94769 16 9.79538 16 9.63044V5.84597C16 5.75751 15.9742 5.67081 15.9257 5.5963C15.877 5.52191 15.8077 5.46279 15.7259 5.42598L15.7257 5.42599Z" fill="black"/>
</g>
</g>
<defs>
<clipPath id="clip0_4474_4459">
<rect width="16" height="16" fill="white"/>
</clipPath>
</defs>
</svg>
