<svg width="16" height="16" viewBox="0 0 16 16" fill="none" xmlns="http://www.w3.org/2000/svg">
<g clip-path="url(#clip0_4474_54356)">
<g opacity="0.4">
<path d="M6.86072 13.0203V5.36601C6.86072 5.047 6.61035 4.78125 6.30983 4.78125H0.550898C0.250365 4.78125 0 5.04702 0 5.36601V13.0203C0 13.3393 0.250377 13.6051 0.550898 13.6051H6.25966C6.61021 13.6316 6.86058 13.3659 6.86058 13.0203H6.86072ZM1.75279 5.92389H5.08302C5.38356 5.92389 5.63392 6.18965 5.63392 6.50864C5.63392 6.82763 5.38355 7.0934 5.08302 7.0934H1.75279C1.45226 7.0934 1.20189 6.82763 1.20189 6.50864C1.20189 6.18976 1.45227 5.92389 1.75279 5.92389ZM1.57746 12.6482H1.30207C1.15187 12.6482 1.02668 12.5153 1.02668 12.3559C1.02668 12.1965 1.15187 12.0636 1.30207 12.0636H1.57746C1.72766 12.0636 1.85285 12.1965 1.85285 12.3559C1.82795 12.5153 1.70276 12.6482 1.57746 12.6482ZM1.57746 10.9473H1.30207C1.15187 10.9473 1.02668 10.8144 1.02668 10.655C1.02668 10.4955 1.15187 10.3626 1.30207 10.3626H1.57746C1.72766 10.3626 1.85285 10.4955 1.85285 10.655C1.82795 10.8143 1.70276 10.9473 1.57746 10.9473ZM1.57746 9.24623H1.30207C1.15187 9.24623 1.02668 9.11335 1.02668 8.95392C1.02668 8.79448 1.15187 8.6616 1.30207 8.6616H1.57746C1.72766 8.6616 1.85285 8.79448 1.85285 8.95392C1.82795 9.11335 1.70276 9.24623 1.57746 9.24623ZM3.55556 12.6483H3.28017C3.12997 12.6483 3.00478 12.5154 3.00478 12.356C3.00478 12.1966 3.12997 12.0637 3.28017 12.0637H3.55556C3.70576 12.0637 3.83095 12.1966 3.83095 12.356C3.83107 12.5154 3.70588 12.6483 3.55556 12.6483ZM3.55556 10.9474H3.28017C3.12997 10.9474 3.00478 10.8145 3.00478 10.6551C3.00478 10.4957 3.12997 10.3628 3.28017 10.3628H3.55556C3.70576 10.3628 3.83095 10.4957 3.83095 10.6551C3.83107 10.8144 3.70588 10.9474 3.55556 10.9474ZM3.55556 9.24636H3.28017C3.12997 9.24636 3.00478 9.11347 3.00478 8.95404C3.00478 8.79461 3.12997 8.66173 3.28017 8.66173H3.55556C3.70576 8.66173 3.83095 8.79461 3.83095 8.95404C3.83107 9.11347 3.70588 9.24636 3.55556 9.24636ZM5.55869 12.6485H5.2833C5.1331 12.6485 5.00791 12.5156 5.00791 12.3561C5.00791 12.1967 5.1331 12.0638 5.2833 12.0638H5.55869C5.70889 12.0638 5.83408 12.1967 5.83408 12.3561C5.80906 12.5156 5.70889 12.6485 5.55869 12.6485ZM5.55869 10.9475H5.2833C5.1331 10.9475 5.00791 10.8146 5.00791 10.6552C5.00791 10.4958 5.1331 10.3629 5.2833 10.3629H5.55869C5.70889 10.3629 5.83408 10.4958 5.83408 10.6552C5.80906 10.8145 5.70889 10.9475 5.55869 10.9475ZM5.55869 9.24648H5.2833C5.1331 9.24648 5.00791 9.1136 5.00791 8.95417C5.00791 8.79473 5.1331 8.66185 5.2833 8.66185H5.55869C5.70889 8.66185 5.83408 8.79473 5.83408 8.95417C5.80906 9.1136 5.70889 9.24648 5.55869 9.24648Z" fill="black"/>
<path d="M13.4205 1.08973C13.4205 0.478411 12.9447 0 12.3938 0H3.30469C3.55506 0.292315 3.70526 0.664413 3.70526 1.08973V4.19935H6.8602C7.16073 4.19935 7.38596 4.46512 7.38596 4.75742V13.608C7.38596 13.927 7.13558 14.1661 6.8602 14.1661H3.70526V14.9103C3.70526 15.5216 4.18099 16 4.73189 16H13.8211C13.5707 15.7077 13.4205 15.3089 13.4205 14.8837C13.4204 -1.80727 13.4204 27.7209 13.4204 1.08989L13.4205 1.08973ZM6.10902 2.44521H5.58326C5.43306 2.44521 5.30787 2.31233 5.30787 2.1529C5.30787 1.99346 5.43306 1.86058 5.58326 1.86058H6.10902C6.25922 1.86058 6.38441 1.99346 6.38441 2.1529C6.38441 2.31233 6.25922 2.44521 6.10902 2.44521ZM10.9915 1.86046H11.5174C11.6676 1.86046 11.7928 1.99334 11.7928 2.15277C11.7928 2.3122 11.6676 2.44509 11.5174 2.44509H10.9916C10.8414 2.44509 10.7162 2.3122 10.7162 2.15277C10.7161 1.99334 10.8413 1.86046 10.9915 1.86046H10.9915ZM8.01184 2.15277C8.01184 1.99334 8.13703 1.86046 8.28723 1.86046H8.81298C8.96319 1.86046 9.08837 1.99334 9.08837 2.15277C9.08837 2.3122 8.96319 2.44509 8.81298 2.44509H8.28723C8.13703 2.44521 8.01184 2.31233 8.01184 2.15277ZM12.068 14.1395H8.71271C8.56251 14.1395 8.43732 14.0066 8.43732 13.8472C8.43732 13.6878 8.56251 13.5549 8.71271 13.5549H12.068C12.2182 13.5549 12.3434 13.6878 12.3434 13.8472C12.3435 14.0066 12.2183 14.1395 12.068 14.1395ZM12.068 11.216H8.71271C8.56251 11.216 8.43732 11.0831 8.43732 10.9237C8.43732 10.7642 8.56251 10.6314 8.71271 10.6314H12.068C12.2182 10.6314 12.3434 10.7642 12.3434 10.9237C12.3435 11.0831 12.2183 11.216 12.068 11.216ZM12.068 8.29233H8.71271C8.56251 8.29233 8.43732 8.15945 8.43732 8.00002C8.43732 7.84058 8.56251 7.7077 8.71271 7.7077H12.068C12.2182 7.7077 12.3434 7.84058 12.3434 8.00002C12.3435 8.15945 12.2183 8.29233 12.068 8.29233ZM12.068 5.3688H8.71271C8.56251 5.3688 8.43732 5.23592 8.43732 5.07649C8.43732 4.91705 8.56251 4.78417 8.71271 4.78417H12.068C12.2182 4.78417 12.3434 4.91705 12.3434 5.07649C12.3435 5.23592 12.2183 5.3688 12.068 5.3688Z" fill="black"/>
</g>
</g>
<defs>
<clipPath id="clip0_4474_54356">
<rect width="16" height="16" fill="white"/>
</clipPath>
</defs>
</svg>
