<svg width="16" height="16" viewBox="0 0 16 16" fill="none" xmlns="http://www.w3.org/2000/svg">
<g clip-path="url(#clip0_4505_36904)">
<g clip-path="url(#clip1_4505_36904)">
<path d="M5 14V16.0065C5 17.4952 6.15848 18.6602 7.5 18.6602C8.90246 18.6602 10 17.4305 10 16.0065V14H5Z" fill="#999999"/>
<path d="M13 10.1554V6.93841C13 4.43903 11.3 2.36033 9 1.69218V1.5437C9 0.801314 8.45 0.108416 7.7 0.00943023C6.775 -0.0895552 6 0.603343 6 1.49421V1.69218C3.7 2.36033 2 4.43903 2 6.93841V10.1554C2 11.0958 1.325 11.9124 0.4 12.0857C0.175 12.1351 0 12.3579 0 12.6053C0 12.9023 0.225 13.125 0.525 13.125H14.475C14.775 13.125 15 12.9023 15 12.6053C15 12.3579 14.825 12.1351 14.6 12.0857C13.675 11.9124 13 11.0958 13 10.1554Z" fill="#999999"/>
</g>
</g>
<defs>
<clipPath id="clip0_4505_36904">
<rect width="16" height="16" fill="white"/>
</clipPath>
<clipPath id="clip1_4505_36904">
<rect width="16" height="16" fill="white"/>
</clipPath>
</defs>
</svg>
