<svg width="18" height="20" viewBox="0 0 18 20" fill="none" xmlns="http://www.w3.org/2000/svg">
<g clip-path="url(#clip0_4474_54312)">
<path d="M2.2521 15.4816V13.7984C2.2521 13.5315 2.46583 13.2852 2.73783 13.2852H8.39175V15.4816C8.56658 15.4405 8.7414 15.3996 8.93577 15.3996C9.13013 15.3996 9.30496 15.42 9.47979 15.4816V13.2854H15.1337C15.4057 13.2854 15.6194 13.5111 15.6194 13.7985V15.4817C15.7943 15.4407 15.9691 15.3997 16.1635 15.3997C16.3578 15.3997 16.5326 15.4202 16.7075 15.4817V13.7985C16.7075 12.8749 16.008 12.1359 15.1337 12.1359L9.47982 12.1358V9.89844H8.37228V12.1153H2.7378C1.86352 12.1153 1.16406 12.8542 1.16406 13.7779V15.4611C1.33889 15.42 1.51372 15.3791 1.70808 15.3791C1.90243 15.3995 2.07727 15.4405 2.2521 15.4816V15.4816Z" fill="#999999"/>
<path d="M4.99693 5.6689H5.65749C5.73515 5.95626 5.83232 6.22315 5.96839 6.48988L5.50205 6.98255C5.3855 7.10568 5.3855 7.29038 5.50205 7.41367L6.37633 8.33732C6.49289 8.46046 6.66772 8.46046 6.78442 8.33732L7.25075 7.84465C7.48386 7.98841 7.75588 8.09092 8.02785 8.17311V8.85048C8.02785 9.0147 8.16392 9.15831 8.31924 9.15831H9.56271C9.71816 9.15831 9.85409 9.01456 9.85409 8.85048V8.15262C10.1261 8.07057 10.3787 7.96791 10.6312 7.82416L11.0975 8.31683C11.2141 8.43997 11.3889 8.43997 11.5056 8.31683L12.3799 7.39318C12.4965 7.27005 12.4965 7.08535 12.3799 6.96206L11.9136 6.46939C12.0496 6.22312 12.1467 5.93574 12.2245 5.64841H12.8656C13.0211 5.64841 13.157 5.50465 13.157 5.34057L13.1571 4.04738C13.1571 3.88315 13.0211 3.73954 12.8658 3.73954H12.2052C12.1275 3.45218 12.0304 3.18529 11.8943 2.91856L12.3606 2.42589C12.4772 2.30275 12.4772 2.11805 12.3606 1.99476L11.4864 1.07112C11.3697 0.968455 11.1948 0.968455 11.0783 1.09159L10.6119 1.58415C10.3788 1.4404 10.1068 1.33788 9.83483 1.2557V0.557836C9.83483 0.393607 9.69876 0.25 9.54345 0.25H8.29998C8.14453 0.25 8.0086 0.393754 8.0086 0.557836V1.2557C7.73659 1.33774 7.48397 1.4404 7.23149 1.58415L6.80377 1.09159C6.68722 0.968455 6.51239 0.968455 6.39569 1.09159L5.52141 2.01524C5.40485 2.13838 5.40485 2.32308 5.52141 2.44637L5.98774 2.93903C5.85167 3.18531 5.75463 3.47268 5.67684 3.76001H5.03568C4.88023 3.76001 4.7443 3.90377 4.7443 4.06785V5.38154C4.72492 5.54576 4.84147 5.6689 4.99692 5.6689H4.99693ZM8.94107 2.9389C9.87364 2.9389 10.612 3.73942 10.612 4.70416C10.612 5.68939 9.85424 6.46942 8.94107 6.46942C8.0085 6.46942 7.27015 5.6689 7.27015 4.70416C7.27015 3.73942 8.0085 2.9389 8.94107 2.9389Z" fill="#999999"/>
<path d="M3.41962 17.9468C3.41962 18.9445 2.65418 19.7532 1.70981 19.7532C0.765582 19.7532 0 18.9445 0 17.9468C0 16.9493 0.765582 16.1406 1.70981 16.1406C2.65418 16.1406 3.41962 16.9493 3.41962 17.9468Z" fill="#999999"/>
<path d="M17.8727 17.9468C17.8727 18.9445 17.1072 19.7532 16.1629 19.7532C15.2186 19.7532 14.4531 18.9445 14.4531 17.9468C14.4531 16.9493 15.2186 16.1406 16.1629 16.1406C17.1072 16.1406 17.8727 16.9493 17.8727 17.9468Z" fill="#999999"/>
<path d="M10.6462 17.9468C10.6462 18.9445 9.8806 19.7532 8.93637 19.7532C7.99215 19.7532 7.22656 18.9445 7.22656 17.9468C7.22656 16.9493 7.99215 16.1406 8.93637 16.1406C9.8806 16.1406 10.6462 16.9493 10.6462 17.9468Z" fill="#999999"/>
</g>
<defs>
<clipPath id="clip0_4474_54312">
<rect width="17.875" height="19.5" fill="white" transform="translate(0 0.25)"/>
</clipPath>
</defs>
</svg>
