<svg width="11" height="12" viewBox="0 0 11 12" fill="none" xmlns="http://www.w3.org/2000/svg">
<g clip-path="url(#clip0_4474_54289)">
<path d="M0.921875 1.60938L3.69607 5.76522L3.69979 5.76702C3.70165 5.77243 3.70918 5.79052 3.7129 5.79593C3.91453 6.09067 4.02097 6.43789 4.02097 6.79783V7.57542C4.44476 7.25349 4.96562 7.07988 5.50321 7.07988C6.04089 7.07988 6.56358 7.2553 6.98545 7.57542V6.79783C6.98545 6.43798 7.09374 6.09076 7.30095 5.78152L10.0844 1.60943L0.921875 1.60938Z" fill="#999999"/>
<path d="M10.5803 1.47489H0.422408C0.195986 1.47489 0.0117188 1.29638 0.0117188 1.07705V0.397841C0.0117188 0.178503 0.19599 0 0.422408 0H10.5803C10.8067 0 10.991 0.178507 10.991 0.397841V1.07714C10.991 1.29639 10.8068 1.47489 10.5804 1.47489" fill="#999999"/>
<path d="M5.87888 9.50473C5.79901 9.47239 5.69833 9.44237 5.57703 9.41501L5.57552 8.83264C5.70693 8.83719 5.82993 8.85906 5.94441 8.89775C5.96141 8.90444 5.97487 8.90752 5.98488 8.90752C6.01516 8.90752 6.0396 8.89689 6.05802 8.87553C6.07653 8.85434 6.08565 8.83067 6.08565 8.80468C6.08547 8.75569 6.06192 8.7231 6.01472 8.70706C5.88668 8.66005 5.73995 8.63346 5.57506 8.62711L5.57471 8.45838C5.57471 8.4372 5.56709 8.4191 5.55177 8.40469C5.53663 8.39002 5.51821 8.38281 5.49634 8.38281C5.47429 8.38281 5.45623 8.39019 5.44197 8.40486C5.42763 8.41953 5.42054 8.43763 5.42072 8.45873L5.42108 8.62994C5.30145 8.64007 5.19926 8.6688 5.11434 8.71624C5.02943 8.76376 4.96558 8.82346 4.92281 8.89526C4.88004 8.96706 4.85879 9.04555 4.85897 9.13038C4.85915 9.22662 4.88545 9.30597 4.93778 9.3686C4.9902 9.43139 5.05555 9.47985 5.134 9.51382C5.21237 9.54796 5.30871 9.57944 5.42339 9.60861L5.42472 10.1714C5.2748 10.1651 5.13161 10.1329 4.99517 10.0745C4.97985 10.068 4.964 10.0647 4.94718 10.0647C4.91689 10.0649 4.89192 10.075 4.87271 10.0956C4.85331 10.116 4.84375 10.1401 4.84375 10.1675C4.84375 10.1889 4.85066 10.2088 4.86412 10.2276C4.87775 10.2464 4.89458 10.2598 4.91486 10.2679C5.07318 10.3328 5.24319 10.3706 5.42527 10.3817L5.42562 10.5553C5.42562 10.5781 5.4327 10.5961 5.44723 10.6091C5.46139 10.6222 5.47955 10.6287 5.50133 10.6285C5.52488 10.6285 5.54392 10.6215 5.55827 10.6078C5.57243 10.5939 5.57952 10.5763 5.57952 10.5552L5.57916 10.3814C5.69525 10.3747 5.79762 10.3504 5.88589 10.3085C5.97418 10.2667 6.04218 10.2109 6.09009 10.1407C6.13791 10.0704 6.16155 9.99204 6.16137 9.90558C6.16119 9.79964 6.1341 9.71446 6.08 9.65003C6.02598 9.58561 5.95893 9.53733 5.87888 9.50473ZM5.17379 9.27887C5.1172 9.23984 5.08905 9.18442 5.08887 9.11271C5.08869 9.03765 5.11889 8.97692 5.17937 8.93026C5.23985 8.8836 5.32069 8.85374 5.42147 8.84036L5.4228 9.37872C5.31344 9.35127 5.23036 9.31798 5.17379 9.27887ZM5.57873 10.171L5.57758 9.6449C5.69535 9.6756 5.78444 9.70854 5.84421 9.74346C5.90416 9.77854 5.934 9.82769 5.93418 9.89143C5.93454 10.0608 5.81597 10.1542 5.57873 10.171Z" fill="#999999"/>
<path d="M6.95833 7.73574C6.55048 7.40222 6.03254 7.21875 5.50019 7.21875C4.96775 7.21875 4.4499 7.40232 4.04177 7.73574C3.53121 8.1546 3.23828 8.76545 3.23828 9.41146C3.23828 10.6195 4.25289 11.6024 5.5001 11.6024C6.74715 11.6024 7.76176 10.6195 7.76176 9.41146C7.76185 8.76554 7.46892 8.15462 6.95836 7.73574M5.50055 10.935C4.63356 10.935 3.92827 10.2518 3.92827 9.41194C3.92827 8.57027 4.63356 7.8854 5.50055 7.8854C6.36727 7.8854 7.07258 8.57027 7.07258 9.41194C7.07258 10.2518 6.36738 10.935 5.50055 10.935Z" fill="#999999"/>
</g>
<defs>
<clipPath id="clip0_4474_54289">
<rect width="11" height="11.6111" fill="white"/>
</clipPath>
</defs>
</svg>
