<svg width="16" height="16" viewBox="0 0 16 16" fill="none" xmlns="http://www.w3.org/2000/svg">
<path opacity="0.4" fill-rule="evenodd" clip-rule="evenodd" d="M1 0C0.447771 0 0 0.447771 0 1V15C0 15.5523 0.447771 16 1 16H15C15.5523 16 16 15.5523 16 15V1C16 0.447771 15.5523 0 15 0H1ZM6.5 2C6.22388 2 6 2.22388 6 2.5V4.7C6 4.97612 6.22388 5.2 6.5 5.2H9.5C9.77612 5.2 10 4.97612 10 4.7V2.5C10 2.22388 9.77612 2 9.5 2H6.5ZM6.63159 13.9823C6.89799 13.9096 7.05501 13.6347 6.98236 13.3683L5.15467 6.66663H10.8455L9.01773 13.3683C8.94507 13.6347 9.1021 13.9096 9.3685 13.9823C9.63491 14.0549 9.90979 13.8979 9.98244 13.6315L11.9824 6.29809C12.0235 6.14775 11.992 5.98691 11.8974 5.86303C11.8029 5.73926 11.6559 5.66649 11.5001 5.66649H4.50008C4.34428 5.66649 4.19728 5.73926 4.10277 5.86303C4.00813 5.98691 3.97665 6.14774 4.01772 6.29809L6.01772 13.6315C6.09038 13.8979 6.36527 14.0549 6.63167 13.9823H6.63159Z" fill="#333333"/>
</svg>
