<svg width="16" height="16" viewBox="0 0 16 16" fill="none" xmlns="http://www.w3.org/2000/svg">
<g clip-path="url(#clip0_4474_54300)">
<path d="M14.3284 12.6127C14.2999 12.4986 14.2002 12.419 14.0864 12.419H10.7542C10.6403 12.419 10.5408 12.4986 10.5122 12.6127L9.98632 14.7079L9.46047 12.6127C9.43195 12.4986 9.33231 12.419 9.21848 12.419H7.7457L7.02633 9.55304C6.99781 9.43901 6.89817 9.35938 6.78434 9.35938H3.4518C3.33796 9.35938 3.23844 9.43901 3.2098 9.55304L2.49056 12.419H1.0179C0.904065 12.419 0.804548 12.4986 0.775908 12.6127L0.00805001 15.672C-0.011444 15.7497 0.00492145 15.8323 0.0522128 15.8956C0.0996256 15.959 0.172545 15.9963 0.249923 15.9963H14.8542C14.9316 15.9963 15.0046 15.9592 15.0519 15.8956C15.0993 15.8324 15.1157 15.7497 15.0961 15.672L14.3284 12.6127ZM3.64535 9.87732H6.591L7.22901 12.419H3.00743L3.64535 9.87732ZM5.11813 14.7078L4.67373 12.9368H5.56262L5.11813 14.7078ZM0.573393 15.4784L1.21141 12.9369H4.15718L4.79495 15.4784H0.573393ZM5.44128 15.4784L6.07929 12.9369H9.02507L9.66308 15.4784H5.44128ZM10.3095 15.4784L10.9475 12.9369H13.893L14.531 15.4784H10.3095Z" fill="#999999"/>
<path d="M15.9805 4.98127C15.1867 3.88146 16.0443 5.06078 14.5426 3.02332C14.4952 2.95939 14.422 2.92188 14.344 2.92188H5.64085C5.563 2.92188 5.48971 2.95926 5.4423 3.02332C4.30395 4.56729 4.02959 4.92157 4.00587 4.97517C4.00154 5.00109 3.94871 5.09942 4.02669 5.22305C4.06026 5.27576 9.78763 12.082 9.81042 12.1078C9.90982 12.2184 10.0749 12.2186 10.1745 12.1078C10.1974 12.0819 15.9151 5.28621 15.9533 5.23038C16.0089 5.14863 16.0105 5.05404 15.9805 4.98126L15.9805 4.98127ZM15.2446 4.82337H13.3494L14.3124 3.56344L15.2446 4.82337ZM7.67538 5.34116H12.3091L9.99235 11.2452L7.67538 5.34116ZM7.66924 4.82337L8.57221 3.6417L9.47543 4.82337H7.66924ZM10.5092 4.82337L11.4122 3.6417L12.3154 4.82337H10.5092ZM13.7691 3.43968L12.8325 4.66497L11.896 3.43968H13.7691ZM10.929 3.43968L9.99241 4.66497L9.05586 3.43968H10.929ZM8.08897 3.43968L7.15242 4.66497L6.21587 3.43968H8.08897ZM5.67255 3.56356L6.6356 4.82336H4.74044L5.67255 3.56356ZM7.13545 5.34119L9.19569 10.5906L4.7828 5.34119H7.13545ZM10.7893 10.5906L12.8494 5.34119H15.2022L10.7893 10.5906Z" fill="#999999"/>
<path d="M7.45437 0.938649C7.34595 1.02738 7.32766 1.19026 7.41334 1.30228L8.15052 2.26698C8.23583 2.37852 8.39287 2.39821 8.50188 2.30923C8.61006 2.2205 8.62835 2.05761 8.54268 1.94534L7.8055 0.981119C7.72006 0.869083 7.56303 0.84989 7.45438 0.938623L7.45437 0.938649Z" fill="#999999"/>
<path d="M10.0547 0C9.9166 0 9.80469 0.115774 9.80469 0.258967V1.48888C9.80469 1.63194 9.91648 1.74784 10.0547 1.74784C10.1929 1.74784 10.3048 1.63207 10.3048 1.48888V0.258967C10.3048 0.115774 10.1929 0 10.0547 0Z" fill="#999999"/>
<path d="M12.307 0.980887L11.5696 1.94533C11.4839 2.05736 11.5022 2.22025 11.6104 2.30922C11.7181 2.39758 11.8757 2.37938 11.9618 2.26697L12.6991 1.30253C12.7847 1.19025 12.7665 1.02736 12.6583 0.938641C12.5497 0.849911 12.3927 0.869101 12.307 0.980887Z" fill="#999999"/>
</g>
<defs>
<clipPath id="clip0_4474_54300">
<rect width="16" height="16" fill="white"/>
</clipPath>
</defs>
</svg>
